<svg width="1200" height="800" viewBox="0 0 1200 800" xmlns="http://www.w3.org/2000/svg" role="img" aria-label="ColorOS 跨设备互联插画">
  <defs>
    <linearGradient id="bgSoft" x1="0%" y1="0%" x2="100%" y2="100%">
      <stop offset="0%" stop-color="#020617" />
      <stop offset="100%" stop-color="#0f172a" />
    </linearGradient>
    <linearGradient id="tablet" x1="0%" y1="0%" x2="100%" y2="100%">
      <stop offset="0%" stop-color="#3b82f6" />
      <stop offset="100%" stop-color="#14b8a6" />
    </linearGradient>
    <linearGradient id="phone" x1="0%" y1="0%" x2="100%" y2="100%">
      <stop offset="0%" stop-color="#f472b6" />
      <stop offset="100%" stop-color="#fb923c" />
    </linearGradient>
    <linearGradient id="watch" x1="0%" y1="0%" x2="100%" y2="100%">
      <stop offset="0%" stop-color="#a78bfa" />
      <stop offset="100%" stop-color="#38bdf8" />
    </linearGradient>
  </defs>
  <rect width="1200" height="800" fill="url(#bgSoft)" />
  <circle cx="360" cy="200" r="140" fill="rgba(59,130,246,0.18)" />
  <circle cx="860" cy="620" r="200" fill="rgba(20,184,166,0.15)" />
  <rect x="240" y="220" width="520" height="360" rx="48" fill="#050b15" stroke="rgba(255,255,255,0.08)" stroke-width="2" />
  <rect x="270" y="250" width="460" height="300" rx="32" fill="url(#tablet)" opacity="0.9" />
  <rect x="520" y="200" width="160" height="420" rx="36" fill="#050b15" stroke="rgba(255,255,255,0.08)" stroke-width="2" />
  <rect x="540" y="230" width="120" height="360" rx="28" fill="url(#phone)" opacity="0.95" />
  <rect x="760" y="320" width="140" height="240" rx="32" fill="#050b15" stroke="rgba(255,255,255,0.08)" stroke-width="2" />
  <rect x="780" y="340" width="100" height="200" rx="24" fill="#0f172a" />
  <circle cx="830" cy="440" r="72" fill="#050b15" stroke="rgba(255,255,255,0.08)" stroke-width="2" />
  <circle cx="830" cy="440" r="52" fill="url(#watch)" />
  <path d="M300 560 C 420 600, 600 600, 720 520" fill="none" stroke="#38bdf8" stroke-width="4" stroke-dasharray="10 14" opacity="0.7" />
  <path d="M720 520 C 800 480, 900 460, 940 420" fill="none" stroke="#f472b6" stroke-width="4" stroke-dasharray="12 16" opacity="0.7" />
  <text x="320" y="620" fill="#cbd5f5" font-family="'Microsoft YaHei', 'PingFang SC', sans-serif" font-size="26">ColorOS 超融合跨设备体验</text>
</svg>
